<svg width="32" height="32" viewBox="0 0 32 32" fill="none" xmlns="http://www.w3.org/2000/svg">
<g clip-path="url(#clip0_1_740)">
<rect width="32" height="32" rx="16" fill="#F8F8F8"/>
<path d="M28.1344 30.1816C26.7037 31.3762 25.9542 31.8577 23.9012 32.6844C21.9526 33.4656 19.8042 33.8971 17.5513 33.9425C17.4287 33.9471 17.306 33.9471 17.1834 33.9471C10.2249 33.9471 4.26106 29.7047 1.72656 23.6637C1.72656 23.6637 1.72656 17.1912 8.67146 17.6636L20.7671 20.3616C25.3138 22.2193 28.0163 29.9727 28.1344 30.1816Z" fill="#F8F8F8"/>
<path d="M17.1841 34.1334C10.3391 34.1334 4.2027 30.0545 1.55464 23.7365C1.54556 23.7137 1.54102 23.6865 1.54102 23.6638C1.54102 23.5502 1.56373 20.825 3.50775 19.0081C4.75229 17.8453 6.49192 17.3275 8.68577 17.4774L20.8087 20.18C23.5567 21.2973 26.1775 24.7448 28.2169 29.8865C28.2623 30 28.2895 30.0682 28.3032 30.0954C28.3395 30.1726 28.3259 30.2726 28.2578 30.3271C26.8315 31.5171 26.0548 32.0213 23.9745 32.857C21.9805 33.6564 19.823 34.0834 17.5565 34.1288C17.4293 34.1334 17.3067 34.1334 17.1841 34.1334ZM1.91801 23.632C4.5161 29.7866 10.5026 33.7609 17.1841 33.7609C17.3022 33.7654 17.4248 33.7609 17.5474 33.7564C19.7685 33.7109 21.8806 33.2931 23.8337 32.5118C25.8323 31.7079 26.5681 31.2446 27.9126 30.1272C27.8989 30.0954 27.8853 30.0636 27.8717 30.0227C25.8686 24.9765 23.3205 21.6062 20.6997 20.5343L8.63126 17.8453C6.57368 17.7091 4.92944 18.1905 3.76665 19.2806C2.05427 20.884 1.9271 23.305 1.91801 23.632Z" fill="#000200"/>
<path d="M19.5006 9.43786C19.0781 7.40299 17.7609 5.41355 13.3324 6.25838C8.9038 7.10321 7.24592 9.3561 7.80915 12.3085C8.37237 15.2609 8.54951 15.4062 8.54951 15.4062C7.85911 15.8105 7.75918 16.3328 7.83186 16.7234C7.93178 17.2548 8.43142 17.8362 9.51244 17.759L10.3664 20.9476L17.6519 22.5964C18.4831 22.3511 19.4143 21.9741 20.0547 21.4245C21.8988 19.8257 20.845 15.9149 19.5006 9.43786Z" fill="#F8F8F8"/>
<path d="M17.6519 22.7826C17.5702 22.7826 17.4975 22.7281 17.4702 22.6463C17.4384 22.5464 17.4975 22.4419 17.5974 22.4147C18.6239 22.1103 19.4097 21.7288 19.9275 21.2791C21.5173 19.9074 20.8269 16.6507 19.6868 11.2592C19.5641 10.6869 19.4415 10.0919 19.3098 9.47417C18.7511 6.77615 16.8025 5.78143 13.3596 6.44004C9.26717 7.22128 7.4049 9.23798 7.98629 12.2721C8.4723 14.8112 8.66307 15.2381 8.69486 15.2926C8.72211 15.329 8.73574 15.3744 8.7312 15.4198C8.72666 15.4788 8.69032 15.5379 8.64035 15.5697C8.01354 15.9376 7.9545 16.3827 8.01354 16.6916C8.10439 17.164 8.54497 17.6454 9.49882 17.5728C9.59874 17.5637 9.69413 17.6409 9.69867 17.7454C9.70775 17.8498 9.63054 17.9407 9.52607 17.9452C8.32241 18.0315 7.75919 17.3593 7.64563 16.7597C7.58204 16.4327 7.59567 15.824 8.31332 15.3335C8.14981 14.9065 7.91816 13.9073 7.62292 12.3448C7.00519 9.11988 9.02189 6.88971 13.296 6.07212C16.9343 5.37718 19.0827 6.49454 19.6868 9.39695C19.814 10.0147 19.9411 10.6097 20.0592 11.182C21.2266 16.7098 21.9306 20.0482 20.1773 21.5653C19.6187 22.0513 18.7874 22.4555 17.7064 22.778C17.6883 22.7826 17.6701 22.7826 17.6519 22.7826Z" fill="#000200"/>
<path d="M18.4877 7.26673C17.602 6.29017 16.0576 5.73603 13.3324 6.25384C8.9038 7.09867 7.24592 9.35156 7.80915 12.3039C8.37237 15.2563 8.37237 15.2563 8.37237 15.2563L8.95376 15.1882C9.39889 15.0474 9.69413 15.0156 10.053 14.9656C10.3346 14.9247 10.5299 15.0428 10.4935 14.7567C10.4572 14.4705 10.4254 14.1844 10.3936 13.9028C10.9705 13.6757 11.4837 13.2669 11.7744 12.7173C12.0651 12.154 11.8834 11.3455 11.1431 11.3455C10.9886 11.3455 10.925 11.5 10.9795 11.6272C11.1067 11.9269 11.1113 12.2267 11.0204 12.4856C10.925 12.7173 10.7388 12.9035 10.4845 13.017C10.4436 13.0352 10.4163 13.067 10.4027 13.1079C10.3754 13.1261 10.3482 13.1397 10.3209 13.1533C10.2256 11.986 10.2528 10.9413 10.6525 10.2918C12.651 10.3644 14.586 9.615 16.0349 8.19786C16.7753 8.13427 17.4702 8.12973 18.0289 8.17969C18.5285 8.2342 18.8192 7.63918 18.4877 7.26673Z" fill="#000200"/>
<path d="M17.2562 15.6196C17.1654 15.6196 17.0836 15.5515 17.07 15.4561C17.0564 15.3516 17.129 15.2562 17.229 15.2426C17.5787 15.1926 17.8512 15.0609 17.9603 14.8883C18.0238 14.7884 18.0329 14.6794 17.992 14.5476C17.9012 14.2615 17.229 14.1843 16.911 14.1979C16.8111 14.1934 16.7339 14.1298 16.7203 14.0344L16.4841 12.3311C16.4704 12.2266 16.5431 12.1312 16.643 12.1176C16.743 12.104 16.8384 12.1767 16.8565 12.2766L17.07 13.8209C17.4243 13.8345 18.1919 13.9208 18.3509 14.4341C18.4236 14.6703 18.4008 14.8928 18.2782 15.0836C18.1056 15.3561 17.7513 15.5469 17.2789 15.6105C17.2699 15.615 17.2653 15.6196 17.2562 15.6196Z" fill="#000200"/>
<path d="M18.5101 12.7218L18.5237 13.0988C18.5373 13.5802 19.2913 13.5575 19.2732 13.0761L19.2595 12.6991C19.2459 12.2176 18.4919 12.2403 18.5101 12.7218Z" fill="#000200"/>
<path d="M13.5101 13.5348L13.5237 13.9118C13.5373 14.3933 14.2913 14.3705 14.2732 13.8891L14.2595 13.5121C14.2459 13.0261 13.4919 13.0533 13.5101 13.5348Z" fill="#000200"/>
<path d="M15.1909 17.6227C14.9048 17.6182 14.5187 17.541 14.4551 17.2139C14.4097 16.9778 14.0327 17.0277 14.0827 17.2639C14.1826 17.7681 14.6686 17.9861 15.1455 17.9952C15.3817 17.9952 15.4317 17.6227 15.1909 17.6227Z" fill="#000200"/>
<path d="M7.89999 12.7808C10.0348 11.5135 12.6465 10.9367 14.9812 10.2644C16.4528 9.83749 17.9426 9.47412 19.4415 9.18342C18.96 7.2394 17.5747 5.44526 13.3324 6.2583C8.9038 7.10313 7.24592 9.35602 7.80915 12.3084C7.8364 12.4765 7.86819 12.6309 7.89999 12.7808Z" fill="#F8F8F8"/>
<path d="M7.89999 12.9716C7.87274 12.9716 7.84548 12.9671 7.82277 12.9535C7.76827 12.9308 7.72739 12.8763 7.71376 12.8172L7.62292 12.3403C7.00519 9.11539 9.02189 6.88521 13.296 6.06762C16.8253 5.39085 18.9555 6.42645 19.6232 9.13355C19.6368 9.18352 19.6277 9.23802 19.6005 9.2789C19.5732 9.32432 19.5278 9.35158 19.4778 9.36066C18.0516 9.63773 16.5573 10.0011 15.0357 10.4371C14.6314 10.5552 14.2181 10.6688 13.8002 10.7823C11.8062 11.3319 9.74409 11.8997 7.99992 12.9353C7.96358 12.9626 7.93179 12.9716 7.89999 12.9716ZM15.2446 6.24477C14.6768 6.24477 14.05 6.3129 13.3642 6.44008C9.27171 7.22132 7.40944 9.23802 7.99083 12.2722L8.03171 12.4856C9.7668 11.5091 11.7608 10.9595 13.6912 10.4281C14.1091 10.3145 14.5224 10.201 14.9266 10.0829C16.3892 9.66044 17.8291 9.30615 19.2053 9.03363C18.6784 7.16682 17.3703 6.24477 15.2446 6.24477Z" fill="#000200"/>
<path d="M14.7077 33.9517C14.6805 33.9517 14.6487 33.9472 14.6214 33.929C14.5306 33.8836 14.4943 33.7701 14.5397 33.6747C14.5488 33.661 15.2573 32.2757 16.4928 29.0281C17.3785 26.7116 18.3778 24.0817 17.8645 23.0688C17.7646 22.8735 17.6056 22.7463 17.3876 22.6873C14.3807 21.8652 13.8129 19.7803 13.4768 18.5358C13.3678 18.1316 13.2543 17.7137 13.118 17.7137C13.068 17.7091 13.0226 17.7273 12.9863 17.7954C12.7047 18.3132 13.2588 20.3072 14.2263 21.7153C14.2853 21.8016 14.2626 21.9197 14.1763 21.9787C14.09 22.0378 13.9719 22.0151 13.9129 21.9288C12.9999 20.6025 12.2323 18.3859 12.6502 17.6183C12.7501 17.4321 12.9136 17.3367 13.1225 17.3412C13.5359 17.3503 13.663 17.8091 13.8356 18.4404C14.1536 19.6077 14.685 21.5654 17.483 22.3285C17.81 22.4193 18.0507 22.6101 18.1961 22.9053C18.7866 24.0681 17.7964 26.6571 16.8425 29.1689C15.598 32.4392 14.8803 33.8382 14.8712 33.8518C14.844 33.9154 14.7759 33.9517 14.7077 33.9517Z" fill="#000200"/>
<path d="M12.9287 21.6925C12.8697 21.6925 12.8061 21.6607 12.7697 21.6062C11.8386 20.2026 11.1255 17.918 11.2481 17.1731C11.3435 16.6098 11.6297 16.519 11.7932 16.5144C12.2565 16.4872 12.7697 17.1867 12.906 17.8044C12.9287 17.9043 12.8651 18.0043 12.7652 18.027C12.6653 18.0497 12.5653 17.9861 12.5426 17.8862C12.42 17.3411 11.993 16.8733 11.8068 16.8914C11.7296 16.8914 11.6569 17.0232 11.6251 17.2366C11.5252 17.8226 12.1702 20.0119 13.0877 21.4018C13.1467 21.4881 13.1195 21.6062 13.0332 21.6607C13.0014 21.6834 12.965 21.6925 12.9287 21.6925Z" fill="#000200"/>
<path d="M11.7117 21.5699C11.6527 21.5699 11.5936 21.5426 11.5573 21.4881C10.6625 20.1845 10.1855 18.0906 10.1855 17.5228C10.1855 17.0595 10.2673 16.4645 10.6488 16.2601C10.885 16.133 11.1803 16.1829 11.5209 16.41C11.6072 16.4691 11.6299 16.5826 11.5754 16.6689C11.5164 16.7552 11.4028 16.7779 11.3165 16.7234C11.1666 16.6235 10.9622 16.5236 10.8305 16.5917C10.667 16.678 10.5671 17.0368 10.5625 17.5228C10.5625 17.9952 11.0077 20.021 11.8661 21.2746C11.9252 21.3609 11.9025 21.479 11.8162 21.5335C11.7844 21.5608 11.748 21.5699 11.7117 21.5699Z" fill="#000200"/>
<path d="M8.26769 31.5671C8.24044 31.5671 8.20864 31.5626 8.18139 31.549C8.09055 31.5036 8.05421 31.39 8.09963 31.2946L8.42212 30.6633C9.38959 28.7828 11.6516 24.3724 11.2655 23.5912C10.4661 21.9651 9.85743 19.7985 9.59399 18.8719L9.5304 18.6448C9.13978 17.2731 9.1534 16.4328 9.58036 16.1421C9.8438 15.9604 10.2117 16.0331 10.6114 16.342C10.6932 16.4056 10.7113 16.5237 10.6478 16.6054C10.5842 16.6872 10.4661 16.7053 10.3843 16.6418C10.13 16.4464 9.90739 16.3783 9.79384 16.4555C9.72571 16.5009 9.40322 16.8234 9.89377 18.5449L9.95736 18.772C10.2163 19.6895 10.8204 21.8334 11.6016 23.4277C12.0331 24.3088 10.4343 27.5701 8.75824 30.8404L8.43575 31.4718C8.40395 31.5308 8.33582 31.5671 8.26769 31.5671Z" fill="#000200"/>
<path d="M20.0192 10.4825C16.8988 10.4871 7.81454 14.098 7.81454 14.098L7.25586 12.3493C7.25586 12.3493 16.2447 9.06538 19.5968 8.85645L20.0192 10.4825Z" fill="#F8F8F8"/>
<path d="M7.80852 14.2842C7.78127 14.2842 7.75401 14.2797 7.72676 14.2661C7.68134 14.2433 7.645 14.2025 7.62683 14.1525L7.06815 12.4038C7.03636 12.3084 7.08632 12.2039 7.18171 12.1721C7.54962 12.0359 16.2341 8.87456 19.5771 8.67017C19.6589 8.66562 19.7497 8.72467 19.7725 8.81097L20.1949 10.4371C20.2085 10.4916 20.1994 10.5551 20.1631 10.6006C20.1267 10.646 20.0722 10.6732 20.0132 10.6732C16.9654 10.6778 7.96749 14.2388 7.87665 14.2751C7.85848 14.2797 7.83123 14.2842 7.80852 14.2842ZM7.48603 12.4628L7.92661 13.8482C9.23929 13.3349 16.6974 10.4552 19.7725 10.3008L19.45 9.05171C16.3114 9.32423 8.71694 12.0223 7.48603 12.4628Z" fill="#000200"/>
<path d="M13.8229 11.1139C13.5368 11.2275 13.2642 11.3592 13.0008 11.5272C12.801 11.6589 13.0417 11.9451 13.2415 11.8134C13.4732 11.6635 13.7275 11.5545 13.9774 11.45C14.2045 11.3637 14.0455 11.0231 13.8229 11.1139Z" fill="#000200"/>
<path d="M19.3055 9.75586C19.0966 9.65593 18.8695 9.59688 18.6696 9.48333C18.4607 9.36523 18.2381 9.66501 18.4471 9.78765C18.6787 9.91937 18.9285 9.99659 19.1647 10.1101C19.3873 10.2101 19.5236 9.86032 19.3055 9.75586Z" fill="#000200"/>
<path d="M15.3027 30.6677C13.8492 30.6677 11.5464 29.9682 9.76133 28.4103C9.68412 28.3421 9.67503 28.224 9.74317 28.1468C9.8113 28.0696 9.92939 28.0605 10.0066 28.1287C12.1278 29.9818 15.0892 30.586 16.1112 30.1772C16.2066 30.1408 16.3156 30.1862 16.3565 30.2816C16.3974 30.377 16.3474 30.486 16.252 30.5269C16.0158 30.6177 15.6888 30.6677 15.3027 30.6677Z" fill="#000200"/>
<path d="M8.55036 15.5925C8.47314 15.5925 8.40047 15.5471 8.37322 15.4698C8.33688 15.3744 8.38684 15.2654 8.48223 15.2291C8.53673 15.2109 9.80398 14.7431 10.34 14.6477C10.4444 14.6295 10.5398 14.6977 10.558 14.7976C10.5761 14.9021 10.508 14.9975 10.4081 15.0156C9.90391 15.1065 8.62757 15.5743 8.61395 15.5834C8.59124 15.5879 8.56853 15.5925 8.55036 15.5925Z" fill="#000200"/>
<path d="M21.5629 33.4566C21.5538 33.4566 21.5492 33.4566 21.5402 33.4566C21.4357 33.443 21.363 33.3476 21.3766 33.2476L21.69 30.7359C21.7037 30.6314 21.7945 30.5633 21.899 30.5723C22.0035 30.586 22.0761 30.6814 22.0625 30.7813L21.7491 33.2931C21.74 33.3884 21.6583 33.4566 21.5629 33.4566Z" fill="#000200"/>
<path d="M7.22399 30.7767C7.22853 30.7722 7.22853 30.7722 7.23307 30.7722C7.30575 30.6995 7.30121 30.5814 7.22853 30.5087C7.21945 30.4996 6.32465 29.5867 6.86971 26.9386C6.89242 26.8387 6.82429 26.7388 6.72436 26.7161C6.62443 26.6933 6.52451 26.7615 6.50179 26.8614C6.08846 28.869 6.45637 29.9637 6.73344 30.4542C6.89696 30.5632 7.06048 30.6722 7.22399 30.7767Z" fill="#000200"/>
</g>
<defs>
<clipPath id="clip0_1_740">
<rect width="32" height="32" rx="16" fill="white"/>
</clipPath>
</defs>
</svg>
