<svg width="27" height="24" viewBox="0 0 27 24" fill="none" xmlns="http://www.w3.org/2000/svg">
<g clip-path="url(#clip0_128_71)">
<path fill-rule="evenodd" clip-rule="evenodd" d="M0.380859 2.25C0.380859 2.05109 0.466462 1.86032 0.618835 1.71967C0.771208 1.57902 0.977871 1.5 1.19336 1.5H3.63086C3.8121 1.50005 3.98811 1.55603 4.13092 1.65904C4.27373 1.76205 4.37512 1.90618 4.41898 2.0685L5.07711 4.5H23.9434C24.0635 4.50007 24.1822 4.52474 24.2908 4.57223C24.3993 4.61972 24.4952 4.68885 24.5713 4.77465C24.6475 4.86044 24.7021 4.96076 24.7312 5.06838C24.7603 5.176 24.7632 5.28823 24.7396 5.397L23.1146 12.897C23.0791 13.0605 22.9855 13.2085 22.8486 13.3174C22.7117 13.4264 22.5395 13.4901 22.359 13.4985L7.08886 14.2065L7.55523 16.5H21.5059C21.7213 16.5 21.928 16.579 22.0804 16.7197C22.2328 16.8603 22.3184 17.0511 22.3184 17.25C22.3184 17.4489 22.2328 17.6397 22.0804 17.7803C21.928 17.921 21.7213 18 21.5059 18H6.88086C6.69143 17.9998 6.50803 17.9386 6.36234 17.8268C6.21665 17.7151 6.11784 17.5599 6.08298 17.388L3.64711 5.4105L2.99711 3H1.19336C0.977871 3 0.771208 2.92098 0.618835 2.78033C0.466462 2.63968 0.380859 2.44891 0.380859 2.25ZM5.42161 6L6.78661 12.7185L21.6456 12.03L22.9521 6H5.42161ZM8.50586 18C7.6439 18 6.81725 18.3161 6.20776 18.8787C5.59827 19.4413 5.25586 20.2044 5.25586 21C5.25586 21.7956 5.59827 22.5587 6.20776 23.1213C6.81725 23.6839 7.6439 24 8.50586 24C9.36781 24 10.1945 23.6839 10.804 23.1213C11.4134 22.5587 11.7559 21.7956 11.7559 21C11.7559 20.2044 11.4134 19.4413 10.804 18.8787C10.1945 18.3161 9.36781 18 8.50586 18ZM19.8809 18C19.0189 18 18.1923 18.3161 17.5828 18.8787C16.9733 19.4413 16.6309 20.2044 16.6309 21C16.6309 21.7956 16.9733 22.5587 17.5828 23.1213C18.1923 23.6839 19.0189 24 19.8809 24C20.7428 24 21.5695 23.6839 22.1789 23.1213C22.7884 22.5587 23.1309 21.7956 23.1309 21C23.1309 20.2044 22.7884 19.4413 22.1789 18.8787C21.5695 18.3161 20.7428 18 19.8809 18ZM8.50586 19.5C8.07488 19.5 7.66156 19.658 7.35681 19.9393C7.05206 20.2206 6.88086 20.6022 6.88086 21C6.88086 21.3978 7.05206 21.7794 7.35681 22.0607C7.66156 22.342 8.07488 22.5 8.50586 22.5C8.93683 22.5 9.35016 22.342 9.65491 22.0607C9.95965 21.7794 10.1309 21.3978 10.1309 21C10.1309 20.6022 9.95965 20.2206 9.65491 19.9393C9.35016 19.658 8.93683 19.5 8.50586 19.5ZM19.8809 19.5C19.4499 19.5 19.0366 19.658 18.7318 19.9393C18.4271 20.2206 18.2559 20.6022 18.2559 21C18.2559 21.3978 18.4271 21.7794 18.7318 22.0607C19.0366 22.342 19.4499 22.5 19.8809 22.5C20.3118 22.5 20.7252 22.342 21.0299 22.0607C21.3346 21.7794 21.5059 21.3978 21.5059 21C21.5059 20.6022 21.3346 20.2206 21.0299 19.9393C20.7252 19.658 20.3118 19.5 19.8809 19.5Z" fill="white"/>
</g>
<defs>
<clipPath id="clip0_128_71">
<rect width="26" height="24" fill="white" transform="translate(0.380859)"/>
</clipPath>
</defs>
</svg>
