<svg width="10" height="10" viewBox="0 0 10 10" fill="none" xmlns="http://www.w3.org/2000/svg">
<path fill-rule="evenodd" clip-rule="evenodd" d="M2.90333 1.02882C2.93236 0.999718 2.96685 0.976629 3.00481 0.960875C3.04278 0.945121 3.08348 0.937012 3.12458 0.937012C3.16569 0.937012 3.20639 0.945121 3.24435 0.960875C3.28232 0.976629 3.3168 0.999718 3.34583 1.02882L7.09583 4.77882C7.12493 4.80785 7.14802 4.84233 7.16378 4.8803C7.17953 4.91827 7.18764 4.95897 7.18764 5.00007C7.18764 5.04118 7.17953 5.08188 7.16378 5.11984C7.14802 5.15781 7.12493 5.19229 7.09583 5.22132L3.34583 8.97132C3.28715 9.03 3.20757 9.06297 3.12458 9.06297C3.0416 9.06297 2.96201 9.03 2.90333 8.97132C2.84465 8.91264 2.81169 8.83306 2.81169 8.75007C2.81169 8.66709 2.84465 8.5875 2.90333 8.52882L6.43271 5.00007L2.90333 1.47132C2.87423 1.44229 2.85114 1.40781 2.83539 1.36984C2.81963 1.33188 2.81152 1.29117 2.81152 1.25007C2.81152 1.20897 2.81963 1.16827 2.83539 1.1303C2.85114 1.09233 2.87423 1.05785 2.90333 1.02882Z" fill="black"/>
</svg>
