<svg width="620" height="408" viewBox="0 0 620 408" fill="none" xmlns="http://www.w3.org/2000/svg">
<path d="M619.998 347.113H0.714844V407.539H619.998V347.113Z" fill="#BADCC8"/>
<path d="M609.901 354.663H0.714844V399.744H609.901V354.663Z" fill="#F5F5F5"/>
<path opacity="0.3" d="M619.999 347.113H499.658V407.539H619.999V347.113Z" fill="black"/>
<path d="M609.888 364.522H608.32H603.705H585.931L520.585 364.62L304.996 364.84L89.363 364.742L23.9576 364.644H6.19851L23.9576 364.4L89.3033 364.302L304.937 364.205L520.525 364.302L585.871 364.4L603.645 364.461H608.26L609.888 364.522Z" fill="#263238"/>
<path d="M609.888 376.581C609.888 376.581 609.365 376.581 608.32 376.581H603.705H585.931L520.585 376.678L304.996 376.776L89.363 376.678L23.9576 376.703H6.19851H1.58323C0.537704 376.703 0 376.703 0 376.703H1.58323H6.19851L23.9576 376.458L89.3033 376.348L304.937 376.263L520.525 376.348L585.871 376.458L603.645 376.519H608.26C609.365 376.556 609.888 376.581 609.888 376.581Z" fill="#263238"/>
<path d="M609.888 388.639H608.32H603.705L585.931 388.7L520.585 388.798L304.996 388.895L89.363 388.798L23.9576 388.761L6.19851 388.7L23.9576 388.505L89.3033 388.407L304.937 388.321L520.525 388.407L585.871 388.505L603.645 388.566H608.26C609.365 388.615 609.888 388.639 609.888 388.639Z" fill="#263238"/>
<path d="M500.017 406.537C499.793 406.537 499.629 393.379 499.629 377.216C499.629 361.053 499.793 347.895 500.017 347.895C500.241 347.895 500.406 361.041 500.406 377.216C500.406 393.392 500.226 406.537 500.017 406.537Z" fill="#263238"/>
<path d="M531.369 291.207H103.09V347.113H531.369V291.207Z" fill="#455A64"/>
<path d="M568.65 291.537H452.104V346.795H568.65V291.537Z" fill="#455A64"/>
<path d="M568.65 299.1H463.066V338.805H568.65V299.1Z" fill="#F5F5F5"/>
<path opacity="0.3" d="M568.65 291.537H452.104V346.795H568.65V291.537Z" fill="black"/>
<path d="M420.766 334.859C420.766 334.859 420.766 334.321 420.766 333.307C420.766 332.293 420.766 330.791 420.766 328.824C420.766 324.865 420.766 319.05 420.661 311.475L420.825 311.61L129.451 311.793L129.839 311.475V334.859L129.451 334.541L336.346 334.676L398.227 334.761H414.985H419.347C420.332 334.761 420.84 334.761 420.84 334.761H419.347H415.045H398.361L336.585 334.847L129.406 334.993H129.018V311.158H129.421L420.795 311.341H420.96V311.475C420.96 319.074 420.96 324.914 420.87 328.897C420.87 330.852 420.87 332.342 420.87 333.356C420.87 334.37 420.766 334.859 420.766 334.859Z" fill="#263238"/>
<path d="M452.254 346.747C452.03 346.747 451.865 334.224 451.865 318.769C451.865 303.315 452.03 290.792 452.254 290.792C452.478 290.792 452.642 303.315 452.642 318.769C452.642 334.224 452.463 346.747 452.254 346.747Z" fill="#263238"/>
<path d="M504.992 225.956H76.7129V269.705H504.992V225.956Z" fill="#BADCC8"/>
<path d="M410.43 261.08C410.413 260.913 410.413 260.746 410.43 260.579C410.43 260.2 410.43 259.748 410.43 259.174C410.43 257.952 410.43 256.169 410.34 253.994C410.34 249.535 410.236 243.341 410.161 236.059L410.519 236.352H390.236L390.624 236.035V242.937C390.624 245.185 390.624 247.372 390.624 249.474C390.624 253.688 390.624 257.574 390.624 261.031L390.311 260.774L404.829 260.994H408.936C409.435 260.991 409.934 261.011 410.43 261.055C409.972 261.078 409.513 261.078 409.056 261.055L405.023 261.129L390.087 261.263H389.893V261.007C389.893 257.549 389.893 253.676 389.893 249.449C389.893 247.348 389.893 245.161 389.893 242.913V236.01L390.281 235.693H410.564H410.803V235.986C410.729 243.316 410.669 249.608 410.624 254.116C410.624 256.254 410.549 257.977 410.519 259.235C410.519 259.773 410.519 260.212 410.519 260.567C410.521 260.74 410.49 260.913 410.43 261.08Z" fill="#263238"/>
<path d="M504.992 232.809H438.93V262.399H504.992V232.809Z" fill="white"/>
<path opacity="0.3" d="M504.976 225.956H430.221V269.705H504.976V225.956Z" fill="black"/>
<path d="M429.906 269.449C429.682 269.449 429.518 259.797 429.518 247.885C429.518 235.974 429.682 226.322 429.906 226.322C430.13 226.322 430.294 235.974 430.294 247.885C430.294 259.797 430.115 269.449 429.906 269.449Z" fill="#263238"/>
<path d="M505.483 239.81C505.483 239.981 490.472 240.127 471.952 240.127C453.431 240.127 438.42 239.981 438.42 239.81C438.42 239.639 453.431 239.492 471.952 239.492C490.472 239.492 505.483 239.626 505.483 239.81Z" fill="#263238"/>
<path d="M505.483 247.555C505.483 247.739 490.472 247.873 471.952 247.873C453.431 247.873 438.42 247.739 438.42 247.555C438.42 247.372 453.431 247.238 471.952 247.238C490.472 247.238 505.483 247.421 505.483 247.555Z" fill="#263238"/>
<path d="M505.483 255.496C505.483 255.667 490.472 255.814 471.952 255.814C453.431 255.814 438.42 255.667 438.42 255.496C438.42 255.325 453.431 255.179 471.952 255.179C490.472 255.179 505.483 255.313 505.483 255.496Z" fill="#263238"/>
<path d="M578.477 269.705H150.197V291.293H578.477V269.705Z" fill="#BADCC8"/>
<path d="M578.461 272.417H482.721V288.764H578.461V272.417Z" fill="#E0E0E0"/>
<path opacity="0.3" d="M578.462 269.705H477.314V291.293H578.462V269.705Z" fill="black"/>
<path d="M477.314 291.293C476.941 287.84 476.821 284.372 476.956 280.908C476.839 277.442 476.983 273.974 477.389 270.523C477.762 273.976 477.877 277.444 477.733 280.908C477.849 284.373 477.709 287.841 477.314 291.293Z" fill="#263238"/>
<path d="M438.915 278.025H180.982V283.181H438.915V278.025Z" fill="#E0E0E0"/>
<path d="M466.905 291.122C466.905 291.305 395.928 291.44 308.402 291.44C220.876 291.44 149.885 291.305 149.885 291.122C149.885 290.939 220.846 290.804 308.402 290.804C395.958 290.804 466.905 290.951 466.905 291.122Z" fill="#263238"/>
<path d="M478.376 291.231C478.376 291.403 407.399 291.549 319.874 291.549C232.348 291.549 161.371 291.403 161.371 291.231C161.371 291.06 232.333 290.914 319.889 290.914C407.444 290.914 478.376 291.048 478.376 291.231Z" fill="#263238"/>
<path d="M578.478 269.546C578.478 269.729 485.082 269.864 369.925 269.864C254.767 269.864 161.371 269.729 161.371 269.546C161.371 269.363 254.737 269.229 369.94 269.229C485.142 269.229 578.478 269.375 578.478 269.546Z" fill="#263238"/>
<path d="M533.161 225.797L530.518 254.507C530.518 254.507 563.377 266.382 563.556 271.721L498.928 269.461L500.929 224.587L533.161 225.797Z" fill="#263238"/>
<path d="M510.636 251.379C509.99 251.54 509.436 251.885 509.074 252.351C508.713 252.817 508.567 253.374 508.664 253.92C508.785 254.454 509.154 254.929 509.695 255.244C510.236 255.558 510.906 255.688 511.562 255.606C512.24 255.432 512.82 255.066 513.198 254.573C513.576 254.081 513.727 253.494 513.623 252.919C513.53 252.647 513.372 252.393 513.159 252.171C512.945 251.95 512.68 251.765 512.379 251.627C512.077 251.49 511.746 251.403 511.403 251.371C511.06 251.338 510.713 251.362 510.382 251.44" fill="#E0E0E0"/>
<path d="M498.928 269.461L499.331 264.94L561.212 268.801C561.212 268.801 564.034 270.023 563.631 271.721L498.928 269.461Z" fill="#455A64"/>
<path d="M531.578 254.25C531.578 254.531 529.965 254.592 528.367 255.472C526.769 256.352 525.888 257.402 525.604 257.292C525.32 257.182 525.858 255.606 527.814 254.641C529.771 253.676 531.653 254.006 531.578 254.25Z" fill="white"/>
<path d="M538.239 256.914C538.239 257.183 536.91 257.598 535.775 258.71C534.64 259.822 534.281 261.031 533.953 261.007C533.624 260.982 533.519 259.443 534.953 258.075C536.387 256.706 538.239 256.657 538.239 256.914Z" fill="white"/>
<path d="M541.735 264.061C541.451 264.061 541.078 262.729 541.959 261.263C542.84 259.797 544.364 259.259 544.483 259.491C544.603 259.724 543.647 260.481 542.989 261.703C542.332 262.924 542.048 264.036 541.735 264.061Z" fill="white"/>
<path d="M531.34 247.653C531.19 247.898 529.771 247.47 527.979 247.519C526.187 247.568 524.768 247.995 524.618 247.751C524.469 247.507 525.843 246.529 527.964 246.529C530.085 246.529 531.504 247.446 531.34 247.653Z" fill="white"/>
<path d="M523.319 130.992C542.736 128.243 564.632 143.807 561.212 163.978C558.224 181.632 538.957 246.138 538.957 246.138L507.74 233.75L516.553 153.703L523.319 130.992Z" fill="#263238"/>
<path d="M441.26 224.587L502.916 194.582L503.992 180.166L441.26 224.587Z" fill="#455A64"/>
<path d="M372.971 177.075L369.685 186.726C364.696 201.387 367.848 214.166 379.438 226.114H379.812L437.749 226.481C454.313 220.568 501.855 183.88 501.855 183.88L496.642 247.409L538.613 250.048C538.613 250.048 544.587 180.642 547.843 164.235C551.099 147.827 539.808 130.894 522.975 132.079C506.142 133.264 373.882 174.399 372.971 177.075Z" fill="#263238"/>
<path d="M522.975 132.054C523.103 132.039 523.234 132.039 523.363 132.054H524.483C525.941 132.099 527.386 132.292 528.785 132.629C533.882 134.075 538.338 136.728 541.585 140.252C543.926 142.608 545.727 145.29 546.902 148.169C548.206 151.477 548.92 154.92 549.023 158.395C549.008 162.213 548.719 166.027 548.157 169.818C547.694 173.764 547.216 177.844 546.663 182.035C544.557 198.723 542.646 213.799 541.242 224.795C540.599 230.231 540.091 234.654 539.748 237.769C539.569 239.26 539.434 240.445 539.33 241.3C539.33 241.667 539.285 241.972 539.195 242.217C539.211 242.318 539.211 242.421 539.195 242.522C539.178 242.417 539.178 242.31 539.195 242.204C539.195 241.96 539.195 241.655 539.195 241.288C539.195 240.433 539.345 239.248 539.464 237.745C539.733 234.679 540.151 230.231 540.749 224.758C541.914 213.763 543.87 198.662 545.931 181.998C546.424 177.82 546.917 173.739 547.425 169.781C547.985 166.019 548.285 162.234 548.321 158.444C548.24 155.022 547.561 151.628 546.305 148.364C545.186 145.529 543.445 142.883 541.167 140.558C538.018 137.065 533.687 134.402 528.71 132.897C526.858 132.392 524.926 132.108 522.975 132.054Z" fill="#455A64"/>
<path d="M515.266 168.535C515.43 168.682 511.323 171.748 507.41 176.317C503.496 180.886 501.316 185.065 501.092 184.979C501.367 184.006 501.793 183.066 502.361 182.181C503.626 180 505.126 177.915 506.842 175.951C508.532 173.982 510.437 172.141 512.533 170.453C513.335 169.716 514.254 169.071 515.266 168.535Z" fill="#455A64"/>
<path d="M523.736 34.4274C525.268 35.043 527.026 35.1688 528.665 34.7803C530.305 34.3918 531.708 33.5169 532.601 32.3269C533.494 31.1368 533.812 29.717 533.493 28.3454C533.173 26.9737 532.24 25.7488 530.875 24.9103C532.228 24.3684 533.337 23.4903 534.043 22.4016C534.749 21.313 535.015 20.0697 534.805 18.8495C534.594 17.6293 533.917 16.4949 532.871 15.6085C531.824 14.7222 530.462 14.1293 528.978 13.9148C529.406 12.7579 529.461 11.53 529.136 10.3507C528.812 9.17137 528.12 8.08085 527.127 7.18532C526.135 6.28978 524.876 5.61973 523.472 5.24041C522.069 4.86108 520.57 4.78541 519.12 5.02076C517.997 3.52548 516.294 2.38098 514.282 1.76983C512.271 1.15868 510.067 1.11608 508.023 1.64883C506.752 1.05034 505.28 0.802476 503.823 0.941925C502.367 1.08137 501.004 1.60072 499.937 2.42308C498.869 3.24544 498.154 4.32709 497.897 5.50787C497.64 6.68866 497.854 7.90581 498.509 8.97911" fill="#263238"/>
<path d="M504.395 6.48681L505.889 6.90219C512.781 8.89699 518.503 12.94 521.918 18.2277C525.333 23.5153 526.191 29.6604 524.32 35.4415C520.735 46.6079 516.598 58.9106 513.999 64.7626C508.637 76.7843 493.089 74.4264 493.089 74.4264L488.115 89.2824L452.701 78.0915L472.118 24.6048C476.181 11.6424 488.742 2.82167 504.395 6.48681Z" fill="#AE7461"/>
<path d="M493.237 74.3898C486.383 72.4284 480.364 68.8956 475.896 64.2129C475.896 64.2129 476.763 74.7074 491.953 77.8472L493.237 74.3898Z" fill="#6F4439"/>
<path d="M513.953 46.6811C513.762 47.1301 513.366 47.5014 512.849 47.7176C512.331 47.9339 511.731 47.9783 511.175 47.8417C510.9 47.7798 510.643 47.6738 510.419 47.5299C510.195 47.3861 510.008 47.2072 509.869 47.0038C509.73 46.8003 509.642 46.5763 509.609 46.3447C509.577 46.1131 509.602 45.8786 509.681 45.6548C509.872 45.2063 510.268 44.8358 510.787 44.6216C511.305 44.4073 511.905 44.3661 512.459 44.5064C512.733 44.567 512.99 44.6717 513.214 44.8144C513.438 44.957 513.625 45.1348 513.764 45.3373C513.903 45.5398 513.992 45.7629 514.024 45.9936C514.056 46.2244 514.032 46.4581 513.953 46.6811Z" fill="#263238"/>
<path d="M518.644 40.4381C518.285 40.5847 517.15 39.1553 514.835 38.52C512.52 37.8848 510.519 38.3246 510.354 38.0192C510.19 37.7137 510.713 37.5549 511.624 37.335C512.849 37.0447 514.154 37.0746 515.358 37.4205C516.538 37.7627 517.557 38.3994 518.27 39.2409C518.763 39.8639 518.823 40.3771 518.644 40.4381Z" fill="#263238"/>
<path d="M495.148 42.1607C494.957 42.6093 494.561 42.9797 494.042 43.1939C493.524 43.4082 492.924 43.4495 492.37 43.3091C492.096 43.2485 491.839 43.1438 491.615 43.0012C491.391 42.8585 491.204 42.6807 491.065 42.4782C490.926 42.2757 490.837 42.0526 490.805 41.8219C490.773 41.5911 490.797 41.3574 490.876 41.1344C491.067 40.6854 491.463 40.3141 491.98 40.0979C492.498 39.8816 493.097 39.8372 493.654 39.9738C493.93 40.0343 494.188 40.1394 494.413 40.2829C494.639 40.4264 494.826 40.6053 494.966 40.8092C495.105 41.0131 495.193 41.2377 495.224 41.4699C495.255 41.702 495.229 41.9369 495.148 42.1607Z" fill="#263238"/>
<path d="M496.21 34.3785C495.852 34.5373 494.717 33.1568 492.401 32.4604C490.086 31.764 488.085 32.2649 487.921 31.9717C487.756 31.6785 488.279 31.5075 489.19 31.2875C490.409 31.0103 491.703 31.0488 492.894 31.3975C494.07 31.74 495.087 32.3716 495.807 33.2056C496.33 33.8409 496.389 34.3174 496.21 34.3785Z" fill="#263238"/>
<path d="M498.539 50.493C499.864 50.5361 501.178 50.7083 502.452 51.0062C503.065 51.1283 503.647 51.1894 503.946 50.8962C504.203 50.4204 504.276 49.8919 504.155 49.3813C504.155 48.0863 504.051 46.718 503.991 45.2885C503.812 39.4732 503.901 34.7574 504.2 34.7451C504.499 34.7329 504.857 39.461 505.036 45.2763C505.036 46.7057 505.036 48.0741 505.111 49.3691C505.229 50.0438 505.055 50.731 504.618 51.3116C504.465 51.459 504.272 51.5746 504.054 51.6489C503.836 51.7232 503.599 51.7542 503.363 51.7392C503.013 51.7143 502.667 51.6569 502.333 51.5682C501.017 51.3458 499.741 50.9844 498.539 50.493Z" fill="#263238"/>
<path d="M501.244 27.8178C500.751 28.1966 499.018 27.1337 496.659 26.3762C494.299 25.6188 492.178 25.3744 492.178 24.8246C492.178 24.5681 492.79 24.2627 493.806 24.1405C495.113 23.9983 496.442 24.1416 497.659 24.5559C498.877 24.9331 499.946 25.5752 500.751 26.4129C501.319 27.0726 501.468 27.6468 501.244 27.8178Z" fill="#263238"/>
<path d="M522.032 32.8146C521.375 33.1078 519.702 32.1305 517.447 31.4585C515.191 30.7866 513.175 30.5545 512.966 29.9925C512.876 29.7237 513.354 29.3816 514.355 29.2228C515.716 29.0544 517.108 29.1851 518.388 29.6015C519.684 29.9792 520.83 30.6379 521.703 31.5074C522.256 32.1671 522.331 32.6802 522.032 32.8146Z" fill="#263238"/>
<path d="M525.305 29.5038C525.305 29.5038 524.662 20.8297 520.958 17.7876C516.477 14.1224 512.086 18.2763 507.516 15.6252C502.945 12.974 498.554 9.51658 491.952 11.1903C484.678 13.0962 486.306 16.3704 483.648 21.6238C472.894 42.9183 465.426 47.6585 468.428 37.0418C468.756 35.8812 465.336 33.8898 466.8 29.0029C468.712 22.65 471.624 15.1243 475.164 11.2392C478.151 7.97723 481.796 6.1813 487.576 4.70303C496.717 2.35733 506.709 5.11841 513.221 7.62292C519.733 10.1274 529.98 20.2188 525.305 29.5038Z" fill="#263238"/>
<path d="M469.443 36.9805C469.618 36.5314 469.678 36.058 469.621 35.5892C469.564 35.1203 469.39 34.666 469.11 34.2542C468.83 33.8423 468.45 33.4815 467.994 33.194C467.538 32.9065 467.014 32.6983 466.456 32.5823C463.603 32.0081 460.004 32.4113 458.181 37.1027C454.97 45.447 465.874 46.3755 465.978 46.1433C466.083 45.9112 468.144 40.4868 469.443 36.9805Z" fill="#AE7461"/>
<path d="M464.992 42.4294C464.992 42.4294 464.783 42.4294 464.439 42.5149C463.958 42.5569 463.475 42.4428 463.095 42.1973C462.571 41.6843 462.224 41.0668 462.087 40.4078C461.951 39.7488 462.03 39.072 462.318 38.4466C462.559 37.7208 463.004 37.0512 463.618 36.4919C463.814 36.2565 464.076 36.0635 464.383 35.9295C464.69 35.7954 465.032 35.7243 465.38 35.7222C465.602 35.7317 465.812 35.804 465.976 35.9266C466.139 36.0492 466.246 36.2145 466.277 36.3941C466.277 36.6629 466.187 36.8095 466.277 36.8339C466.366 36.8584 466.56 36.7606 466.605 36.3941C466.634 36.1702 466.565 35.9452 466.411 35.7588C466.198 35.5142 465.876 35.3475 465.515 35.2946C465.069 35.2549 464.618 35.3093 464.205 35.4526C463.792 35.5959 463.43 35.8233 463.155 36.1131C462.449 36.7236 461.936 37.4659 461.661 38.2755C461.079 39.9737 461.512 41.8185 462.856 42.5516C463.105 42.6891 463.39 42.7782 463.687 42.8121C463.985 42.846 464.288 42.8237 464.574 42.747C464.902 42.6249 465.022 42.4538 464.992 42.4294Z" fill="#6F4439"/>
<path d="M476.523 21.0495C477.403 22.2278 478.631 23.2066 480.093 23.8961C480.839 24.22 481.703 24.3131 482.526 24.1583C483.349 24.0034 484.076 23.6111 484.574 23.0531C484.947 22.5033 485.052 21.8314 485.709 21.4771C486.366 21.1228 487.427 21.5626 488.248 21.8803C491.071 22.9798 495.627 21.3183 497.374 19.1925C497.57 19.7492 498.016 20.2247 498.623 20.5238C499.229 20.8228 499.952 20.9233 500.645 20.8051C501.772 20.5961 502.848 20.2326 503.827 19.7301C504.416 19.3998 505.094 19.1898 505.804 19.1175C506.513 19.0452 507.233 19.1128 507.904 19.3147C508.606 19.6079 509.144 20.1699 509.921 20.3287C511.295 20.6219 512.475 19.5346 513.147 18.5205C513.819 17.5065 514.491 16.2848 515.865 16.0771C517.18 16.0318 518.471 16.3695 519.51 17.0301C520.66 17.531 522.347 17.7386 523.064 16.859C523.233 16.614 523.337 16.343 523.37 16.0633C523.404 15.7835 523.366 15.5012 523.259 15.2341C522.869 14.0006 521.981 12.9109 520.739 12.1414C519.498 11.372 517.975 10.968 516.418 10.9948C516.521 9.47511 516.07 7.96462 515.121 6.65543C514.172 5.34624 512.768 4.29752 511.088 3.64264C509.409 2.98776 507.529 2.75633 505.688 2.97777C503.847 3.19921 502.128 3.86352 500.75 4.88621C500.02 3.78427 498.977 2.84267 497.707 2.14147C496.437 1.44026 494.98 1.00018 493.457 0.858643C491.935 0.717108 490.394 0.878303 488.964 1.32852C487.535 1.77874 486.259 2.50467 485.246 3.44459C484.123 2.82605 482.803 2.49073 481.449 2.48023C480.095 2.46972 478.767 2.78448 477.63 3.38549C476.493 3.98649 475.597 4.84729 475.052 5.86115C474.508 6.875 474.339 7.99732 474.567 9.08891C473.468 9.20102 472.422 9.53879 471.527 10.0707C470.631 10.6026 469.914 11.3114 469.444 12.131C468.667 13.8292 469.981 16.1138 472.177 16.2482C471.474 16.8033 471.058 17.5576 471.013 18.356C470.969 19.1544 471.3 19.9364 471.938 20.5414C472.577 21.1465 473.474 21.5287 474.446 21.6095C475.418 21.6904 476.391 21.4637 477.166 20.9762" fill="#263238"/>
<path d="M516.105 13.5847C516.09 13.6406 516.065 13.6942 516.03 13.7435C515.958 13.8868 515.873 14.0256 515.776 14.1589C515.401 14.6808 514.921 15.1474 514.357 15.5394C513.475 16.1649 512.427 16.6126 511.295 16.8467C509.812 17.1702 508.24 17.0931 506.814 16.6268L507.068 16.4924C507.061 16.9085 506.954 17.3193 506.751 17.7011C506.549 18.0828 506.255 18.4277 505.888 18.7159C505.121 19.3288 504.244 19.8437 503.289 20.2431C502.824 20.4987 502.322 20.7079 501.796 20.8661C500.878 21.0609 499.905 20.9808 499.053 20.6402C498.201 20.2997 497.527 19.7211 497.151 19.0091H497.569C497.062 19.8271 496.35 20.5488 495.481 21.1275C494.611 21.7063 493.603 22.1292 492.52 22.3688C491.322 22.6923 490.029 22.6923 488.831 22.3688C487.737 22.0016 486.727 21.4853 485.844 20.8417H486.143C485.194 21.6923 483.996 22.3314 482.662 22.6987C482.042 22.8957 481.375 22.9771 480.711 22.9369C480.047 22.8968 479.402 22.7361 478.824 22.4666C477.844 21.9776 477.06 21.2648 476.569 20.416C476.078 19.5673 475.901 18.6196 476.061 17.6897L476.255 17.8363C474.995 17.9984 473.706 17.7952 472.61 17.2621C471.79 16.8758 471.094 16.3356 470.579 15.6861C470.255 15.2778 470.018 14.8275 469.877 14.3544C469.851 14.1881 469.851 14.0198 469.877 13.8535C470.064 14.4742 470.377 15.0648 470.803 15.6005C471.328 16.213 472.018 16.7188 472.82 17.0788C473.867 17.5599 475.084 17.7364 476.27 17.5797H476.494V17.763C476.36 18.6344 476.537 19.5189 477.003 20.3101C477.47 21.1012 478.206 21.7652 479.123 22.2222C479.654 22.4648 480.246 22.6062 480.854 22.6358C481.461 22.6654 482.069 22.5825 482.633 22.3933C483.891 22.0356 485.021 21.4267 485.919 20.6218L486.068 20.4996L486.232 20.6096C487.088 21.222 488.062 21.7133 489.115 22.0634C490.22 22.3634 491.415 22.3634 492.52 22.0634C493.541 21.8379 494.492 21.4397 495.313 20.8947C496.134 20.3497 496.806 19.6698 497.285 18.8992L497.524 18.5326L497.703 18.9236C497.925 19.3463 498.27 19.7185 498.707 20.008C499.144 20.2975 499.661 20.4956 500.212 20.5851C500.738 20.6893 501.286 20.6893 501.811 20.5851C502.333 20.435 502.834 20.2384 503.304 19.9987C504.23 19.6205 505.081 19.1304 505.828 18.5449C506.166 18.2875 506.437 17.9778 506.627 17.6338C506.817 17.2899 506.921 16.9185 506.934 16.5413V16.3213L507.188 16.4069C508.558 16.8773 510.078 16.9716 511.519 16.6757C512.613 16.4546 513.634 16.0373 514.506 15.4539C515.157 14.9045 515.697 14.2734 516.105 13.5847Z" fill="#455A64"/>
<path d="M495.94 56.6501C495.94 56.3325 493.327 56.1248 491.639 54.109C489.951 52.0931 490.504 49.7841 490.145 49.7474C489.787 49.7108 489.563 50.2239 489.428 51.2013C489.256 52.4914 489.648 53.7897 490.534 54.8664C491.379 55.8922 492.682 56.6069 494.163 56.8578C495.194 56.9678 495.94 56.809 495.94 56.6501Z" fill="#263238"/>
<path d="M457.824 64.7381C457.824 64.7381 432.433 63.663 421.111 75.0372C411.149 85.0674 367.49 173.495 367.49 187.924C367.49 202.352 406.713 189.793 421.947 183.232C437.182 176.672 479.661 145.176 479.661 145.176C479.661 145.176 480.378 141.388 481.154 138.114C481.931 134.84 489.1 112.165 489.937 104.175C490.579 97.981 489.28 84.4932 489.28 84.4932C474.03 82.172 457.824 64.7381 457.824 64.7381Z" fill="#BADCC8"/>
<path d="M598.06 111.591L597.896 110.821L596.686 111.065L581.033 86.2158L509.279 111.518L531.848 135.426L598.06 111.591Z" fill="#BADCC8"/>
<g opacity="0.3">
<path d="M559.599 120.631L548.396 104.26L571.458 95.916L583.317 112.812L559.599 120.631Z" fill="white"/>
</g>
<path d="M492.326 128.035L505.336 122.561C505.336 122.561 512.923 108.206 517.748 105.641C522.572 103.075 530.13 104.162 530.13 104.162L523.244 108.365C523.244 108.365 518.659 113.447 523.065 114.254C527.471 115.06 550.443 105.8 553.654 106.068C556.865 106.337 553.505 111.065 553.505 111.065C553.505 111.065 557.821 112.091 554.013 116.428C554.152 117.452 553.967 118.487 553.475 119.435C552.983 120.383 552.201 121.212 551.205 121.841C542.601 126.911 525.021 132.506 523.184 133.386C520.615 134.608 499.675 143.807 499.675 143.807L492.326 128.035Z" fill="#AE7461"/>
<path d="M553.505 111.065C552.811 111.641 552.022 112.134 551.16 112.531C549.667 113.374 547.531 114.486 545.096 115.598C543.019 116.559 540.868 117.412 538.659 118.151C537.767 118.507 536.816 118.753 535.836 118.884C535.836 118.701 539.899 117.271 544.798 115.048C547.611 113.594 550.518 112.265 553.505 111.065Z" fill="#6F4439"/>
<path d="M554.625 115.696C552.434 117.648 549.871 119.298 547.037 120.583C544.331 122.033 541.362 123.126 538.24 123.82C538.15 123.637 542.123 122.281 546.634 120.045C551.145 117.809 554.475 115.61 554.625 115.696Z" fill="#6F4439"/>
<path d="M582.062 87.8652L584.482 87.01L592.339 99.0806L593.802 98.8484L595.072 99.7159L597.895 110.821L596.685 111.066L582.062 87.8652Z" fill="#E0E0E0"/>
<path d="M597.506 110.357C594.966 106.662 592.653 102.866 590.576 98.9828C588.259 95.1912 586.18 91.3051 584.348 87.3398C586.888 91.0343 589.201 94.8304 591.278 98.714C594.967 105.067 597.76 110.284 597.506 110.357Z" fill="#263238"/>
<path d="M499.361 125.017L462.32 135.769C462.32 135.769 462.544 95.171 459.586 80.3149C456.48 64.7136 417.855 63.2842 417.197 89.5266C417.197 92.1533 415.047 136.819 422.171 154.143C429.296 171.467 439.826 174.363 455.031 170.429C470.236 166.495 512.52 141.889 512.52 141.889L499.361 125.017Z" fill="#BADCC8"/>
<path d="M499.361 125.018C499.361 125.018 499.66 125.36 500.242 126.08L502.797 129.281L512.699 141.804L512.804 141.926L512.654 142.012C506.112 145.823 497.897 150.478 488.144 155.67C483.275 158.26 478.017 160.985 472.327 163.709C469.489 165.065 466.532 166.434 463.44 167.716C461.946 168.401 460.288 168.938 458.675 169.586C457.005 170.162 455.294 170.656 453.552 171.064C449.958 171.972 446.195 172.349 442.44 172.176C438.483 171.919 434.743 170.596 431.805 168.413C428.854 166.131 426.484 163.395 424.83 160.362C423.056 157.286 421.646 154.079 420.618 150.784C418.825 143.883 417.711 136.877 417.287 129.831C416.734 122.647 416.51 115.28 416.48 107.84C416.48 101.377 416.57 95.0122 416.869 88.7448C416.993 85.5991 417.85 82.5017 419.393 79.6186C420.942 76.7821 423.354 74.3174 426.398 72.4594C429.388 70.7366 432.814 69.589 436.423 69.1024C440.031 68.6158 443.727 68.8028 447.234 69.6495C450.648 70.4219 453.743 71.9329 456.196 74.0232C457.35 75.0737 458.298 76.2649 459.004 77.5539C459.619 78.8393 460.016 80.1876 460.184 81.5612C461.065 86.9001 461.423 92.0924 461.677 97.0769C461.931 102.062 462.155 106.851 462.275 111.395C462.529 120.509 462.573 128.707 462.544 135.83L462.23 135.646L489.638 127.803L496.867 125.751L498.719 125.237L499.346 125.079L498.704 125.286L496.837 125.848L489.593 127.999L462.379 136.013L462.081 136.099V135.83C462.081 128.719 461.976 120.522 461.677 111.395C461.543 106.851 461.349 102.074 461.035 97.0892C460.721 92.1046 460.333 86.9367 459.437 81.6345C459.266 80.3074 458.88 79.0049 458.287 77.7616C457.617 76.534 456.714 75.4002 455.613 74.4019C453.253 72.4029 450.283 70.9561 447.01 70.2114C443.611 69.3975 440.032 69.2208 436.538 69.6946C433.045 70.1684 429.727 71.2805 426.831 72.9481C423.895 74.7429 421.571 77.1237 420.08 79.863C418.581 82.6744 417.745 85.6919 417.616 88.7571C417.332 95 417.227 101.377 417.242 107.828C417.242 115.305 417.496 122.66 418.049 129.819C418.465 136.826 419.559 143.795 421.32 150.661C422.344 153.915 423.734 157.085 425.472 160.13C427.077 163.095 429.387 165.77 432.268 167.997C435.088 170.106 438.679 171.394 442.484 171.663C446.158 171.831 449.839 171.467 453.358 170.588C455.068 170.186 456.749 169.705 458.391 169.146C460.004 168.523 461.618 167.924 463.141 167.301C466.218 166.079 469.116 164.674 472.013 163.318C477.689 160.618 482.961 157.918 487.845 155.341C497.614 150.197 505.858 145.567 512.43 141.816V142.024C508.218 136.551 504.962 132.336 502.737 129.465C501.646 128.035 500.825 126.948 500.242 126.203L499.361 125.018Z" fill="#263238"/>
<path d="M451.699 151.162C451.866 150.277 452.177 149.414 452.625 148.596C453.511 146.617 454.575 144.694 455.807 142.842C457.035 140.99 458.47 139.236 460.093 137.601C460.728 136.89 461.488 136.26 462.349 135.732C462.528 135.854 459.361 138.847 456.464 143.147C453.566 147.448 451.938 151.235 451.699 151.162Z" fill="#263238"/>
<path d="M56.9057 335.421C57.1596 335.592 58.2499 334.725 59.8929 334.199C61.5359 333.674 63.0594 333.552 63.0743 333.283C63.0892 333.014 61.3716 332.635 59.4299 333.283C57.4882 333.931 56.6517 335.287 56.9057 335.421Z" fill="white"/>
<path d="M105.642 361.517C105.418 361.639 104.148 359.953 101.564 359.269C99.9572 358.947 98.2909 358.873 96.6504 359.049C96.6504 358.976 97.0835 358.646 98.0395 358.426C99.3014 358.177 100.623 358.224 101.854 358.561C103.085 358.898 104.175 359.512 105 360.332C105.597 360.979 105.747 361.48 105.642 361.517Z" fill="white"/>
<path d="M103.432 366.392C102.147 365.983 100.836 365.632 99.5037 365.341C98.131 365.269 96.7541 365.269 95.3814 365.341C95.232 365.17 97.1139 364.229 99.6531 364.571C102.192 364.913 103.626 366.282 103.432 366.392Z" fill="white"/>
</svg>
